<?xml version="1.0" standalone="no"?>
<!DOCTYPE svg PUBLIC "-//W3C//DTD SVG 20010904//EN"
 "http://www.w3.org/TR/2001/REC-SVG-20010904/DTD/svg10.dtd">
<svg version="1.0" xmlns="http://www.w3.org/2000/svg"
 width="700.000000pt" height="700.000000pt" viewBox="0 0 700.000000 700.000000"
 preserveAspectRatio="xMidYMid meet">
<metadata>
Created by potrace 1.14, written by Peter Selinger 2001-2017
</metadata>
<g transform="translate(0.000000,700.000000) scale(0.100000,-0.100000)"
fill="#000000" stroke="none">
<path d="M1792 5207 c-930 -930 -1692 -1697 -1692 -1702 0 -6 438 -448 974
-984 l974 -974 149 63 c664 282 1178 617 1385 901 193 266 117 558 -218 838
-196 163 -355 259 -921 551 -424 220 -563 299 -680 387 -157 118 -217 230
-175 325 61 139 282 220 1037 378 586 123 830 184 1085 272 387 134 650 295
796 492 24 32 44 55 44 51 0 -4 -19 -44 -42 -88 -55 -107 -202 -258 -338 -347
-271 -177 -610 -309 -1275 -495 -529 -147 -667 -196 -742 -259 -95 -81 5 -155
462 -341 790 -321 1128 -484 1440 -690 282 -186 464 -372 561 -570 55 -113 74
-194 74 -316 0 -421 -275 -926 -794 -1457 -233 -238 -473 -450 -719 -635
l-108 -81 213 -213 213 -213 1702 1702 1703 1703 -1697 1697 c-934 934 -1702
1698 -1708 1698 -6 0 -772 -762 -1703 -1693z"/>
</g>
</svg>
